{"accessors" : [{"bufferView" : 0, "byteOffset" : 0, "componentType" : 5123, "count" : 10224, "type" : "SCALAR", "max" : [8407], "min" : [0]}, {"bufferView" : 1, "byteOffset" : 0, "componentType" : 5126, "count" : 8408, "type" : "VEC3", "max" : [0.9498458504676819, 0.8876859545707703, 15.265336036682129], "min" : [-0.9498458504676819, -1.9202102422714233, -4.5215911865234375], "name" : "POSITION"}, {"bufferView" : 1, "byteOffset" : 12, "componentType" : 5126, "count" : 8408, "type" : "VEC3", "max" : [0.9999762773513794, 1.0000044107437134, 1.0000042915344238], "min" : [-0.9999762773513794, -0.999998927116394, -0.9980557560920715], "name" : "NORMAL"}, {"bufferView" : 1, "byteOffset" : 24, "componentType" : 5126, "count" : 8408, "type" : "VEC2", "max" : [0, 2], "min" : [0, 2], "name" : "TEXCOORD_0"}, {"bufferView" : 0, "byteOffset" : 20448, "componentType" : 5123, "count" : 150, "type" : "SCALAR", "max" : [127], "min" : [0]}, {"bufferView" : 2, "byteOffset" : 0, "componentType" : 5126, "count" : 128, "type" : "VEC3", "max" : [16.036928176879883, 4.679068565368652, 4.294527530670166], "min" : [-7.450253963470459, 1.795449137687683, 1.795449137687683], "name" : "POSITION"}, {"bufferView" : 2, "byteOffset" : 12, "componentType" : 5126, "count" : 128, "type" : "VEC3", "max" : [1.0000044107437134, 0.7337235808372498, 0.7336775660514832], "min" : [-1.0000044107437134, -0.7999574542045593, -0.8015430569648743], "name" : "NORMAL"}, {"bufferView" : 2, "byteOffset" : 24, "componentType" : 5126, "count" : 128, "type" : "VEC2", "max" : [0.875, 2], "min" : [0, 1], "name" : "TEXCOORD_0"}, {"bufferView" : 0, "byteOffset" : 20748, "componentType" : 5123, "count" : 150, "type" : "SCALAR", "max" : [127], "min" : [0]}, {"bufferView" : 3, "byteOffset" : 0, "componentType" : 5126, "count" : 128, "type" : "VEC3", "max" : [15.963045120239258, 4.679068565368652, 4.294527530670166], "min" : [-7.450253963470459, 1.7954481840133667, 1.7954481840133667], "name" : "POSITION"}, {"bufferView" : 3, "byteOffset" : 12, "componentType" : 5126, "count" : 128, "type" : "VEC3", "max" : [1.0000044107437134, 0.7337235808372498, 0.7336775660514832], "min" : [-1.0000044107437134, -0.7999574542045593, -0.8015430569648743], "name" : "NORMAL"}, {"bufferView" : 3, "byteOffset" : 24, "componentType" : 5126, "count" : 128, "type" : "VEC2", "max" : [0.875, 2], "min" : [0, 1], "name" : "TEXCOORD_0"}, {"bufferView" : 0, "byteOffset" : 21048, "componentType" : 5123, "count" : 144, "type" : "SCALAR", "max" : [117], "min" : [0]}, {"bufferView" : 4, "byteOffset" : 0, "componentType" : 5126, "count" : 118, "type" : "VEC3", "max" : [-8.139652252197266, 3.038729667663574, 10.511170387268066], "min" : [-10.511170387268066, 0.2104954868555069, 8.139652252197266], "name" : "POSITION"}, {"bufferView" : 4, "byteOffset" : 12, "componentType" : 5126, "count" : 118, "type" : "VEC3", "max" : [0.8182783722877502, 1.0000044107437134, 0.7340088486671448], "min" : [-0.7340088486671448, -1.0000044107437134, -0.8182783722877502], "name" : "NORMAL"}, {"bufferView" : 4, "byteOffset" : 24, "componentType" : 5126, "count" : 118, "type" : "VEC2", "max" : [0.8750001192092896, 2], "min" : [0.1250000149011612, 0.9999998807907104], "name" : "TEXCOORD_0"}], "asset" : {"generator" : "Aspose.3D 24.1.0", "version" : "2.0"}, "buffers" : [{"uri" : "data:application/octet-stream;base64,", "byteLength" : 362732}], "bufferViews" : [{"buffer" : 0, "byteOffset" : 0, "byteLength" : 21336, "target" : 34963}, {"buffer" : 0, "byteOffset" : 21340, "byteLength" : 327168, "byteStride" : 32, "target" : 34962}, {"buffer" : 0, "byteOffset" : 348512, "byteLength" : 4800, "byteStride" : 32, "target" : 34962}, {"buffer" : 0, "byteOffset" : 353316, "byteLength" : 4800, "byteStride" : 32, "target" : 34962}, {"buffer" : 0, "byteOffset" : 358120, "byteLength" : 4608, "byteStride" : 32, "target" : 34962}], "images" : [{"uri" : "data:image/png;base64,"}, {"uri" : "data:image/png;base64,"}, {"uri" : "data:image/png;base64,"}], "materials" : [{"name" : "Material", "pbrMetallicRoughness" : {"baseColorFactor" : [0.35838252305984497, 0.7391349077224731, 1, 1], "metallicFactor" : 0, "roughnessFactor" : 0.5}, "emissiveFactor" : [0, 0, 0], "alphaMode" : "OPAQUE", "doubleSided" : true}, {"name" : "Material.002", "pbrMetallicRoughness" : {"baseColorFactor" : [1, 1, 1, 1], "baseColorTexture" : {"index" : 0, "texCoord" : 0}, "metallicFactor" : 0, "roughnessFactor" : 0.5}, "emissiveFactor" : [0, 0, 0], "alphaMode" : "OPAQUE", "doubleSided" : true}, {"name" : "Material.003", "pbrMetallicRoughness" : {"baseColorFactor" : [1, 1, 1, 1], "baseColorTexture" : {"index" : 1, "texCoord" : 0}, "metallicFactor" : 0, "roughnessFactor" : 0.5}, "emissiveFactor" : [0, 0, 0], "alphaMode" : "OPAQUE", "doubleSided" : true}, {"name" : "Material.001", "pbrMetallicRoughness" : {"baseColorFactor" : [1, 1, 1, 1], "baseColorTexture" : {"index" : 2, "texCoord" : 0}, "metallicFactor" : 0.10000000149011612, "roughnessFactor" : 0.5}, "emissiveFactor" : [0, 0, 0], "alphaMode" : "OPAQUE", "doubleSided" : true}], "meshes" : [{"primitives" : [{"attributes" : {"POSITION" : 1, "NORMAL" : 2, "TEXCOORD_0" : 3}, "indices" : 0, "material" : 0, "mode" : 4}]}, {"primitives" : [{"attributes" : {"POSITION" : 5, "NORMAL" : 6, "TEXCOORD_0" : 7}, "indices" : 4, "material" : 1, "mode" : 4}]}, {"primitives" : [{"attributes" : {"POSITION" : 9, "NORMAL" : 10, "TEXCOORD_0" : 11}, "indices" : 8, "material" : 2, "mode" : 4}]}, {"primitives" : [{"attributes" : {"POSITION" : 13, "NORMAL" : 14, "TEXCOORD_0" : 15}, "indices" : 12, "material" : 3, "mode" : 4}]}], "nodes" : [{"mesh" : 0, "name" : "Circle"}, {"matrix" : [1, 0, 0, 0, 0, 0.7071067450934194, 0.7071068487086123, 0, 0, -0.7071068487086123, 0.7071067450934194, 0, -4.293336868286133, 0, 0, 1], "mesh" : 1, "name" : "Cube"}, {"matrix" : [0.5348103642463684, 0, 0, 0, 0, 0.37816804030221485, 0.37816804186827785, 0, 0, -0.37816804186827785, 0.37816804030221485, 0, -2.2763638496398926, 0, 11.06989860534668, 1], "mesh" : 2, "name" : "Cube.001"}, {"matrix" : [0.7071067450934194, 0, -0.7071068487086123, 0, 0, 1, 0, 0, 0.7071068487086123, 0, 0.7071067450934194, 0, 0, 0, 0, 1], "mesh" : 3, "name" : "Cube.002"}], "samplers" : [{"magFilter" : 9729, "minFilter" : 9987, "wrapS" : 10497, "wrapT" : 10497}, {"magFilter" : 9729, "minFilter" : 9987, "wrapS" : 10497, "wrapT" : 10497}, {"magFilter" : 9729, "minFilter" : 9987, "wrapS" : 10497, "wrapT" : 10497}], "scene" : 0, "scenes" : [{"nodes" : [0, 1, 2, 3]}], "textures" : [{"sampler" : 0, "source" : 0, "name" : ""}, {"sampler" : 1, "source" : 1, "name" : ""}, {"sampler" : 2, "source" : 2, "name" : ""}]}